<?xml version="1.0" encoding="utf-8"?>
<!-- Generator: Adobe Illustrator 16.0.0, SVG Export Plug-In . SVG Version: 6.00 Build 0)  -->
<!DOCTYPE svg PUBLIC "-//W3C//DTD SVG 1.1//EN" "http://www.w3.org/Graphics/SVG/1.1/DTD/svg11.dtd">
<svg version="1.1"
	 id="Layer_1" xmlns:dc="http://purl.org/dc/elements/1.1/" xmlns:cc="http://creativecommons.org/ns#" xmlns:rdf="http://www.w3.org/1999/02/22-rdf-syntax-ns#" xmlns:svg="http://www.w3.org/2000/svg"
	 xmlns="http://www.w3.org/2000/svg" xmlns:xlink="http://www.w3.org/1999/xlink" x="0px" y="0px" width="612px" height="792px"
	 viewBox="0 0 612 792" enable-background="new 0 0 612 792" xml:space="preserve">
<path d="M447.716,151.965v45.326c-64.857,0.397-110.707,12.498-145.158,32.13c-17.55,10.001-31.845,21.555-43.988,33.469
	c14.692,15.38,27.805,32.604,42.267,48.195c9.907-10.068,20.384-18.854,33.277-26.201c23.332-13.296,56.699-23.148,113.603-23.524
	v45.135L581.4,229.23L447.716,151.965z M30.6,197.291l0.191,63.878c66.483-0.264,106.223,10.233,133.301,24.289
	c27.079,14.056,43.313,32.288,62.348,54.697c19.035,22.41,40.663,49.221,76.118,69.424c34.45,19.632,80.302,31.541,145.158,31.938
	v45.518L581.4,409.77l-133.685-77.265v45.135c-56.903-0.379-90.271-10.228-113.603-23.524
	c-24.084-13.724-39.548-32.257-59.096-55.271c-19.548-23.015-43.375-50.124-81.664-69.998C155.064,208.975,104.013,197,30.6,197.291
	z M199.856,327.915c-10.254,9.738-21.484,18.215-35.764,25.627c-27.078,14.054-66.817,24.553-133.301,24.289L30.6,441.709
	c73.414,0.292,124.463-11.683,162.753-31.557c19.462-10.102,35.266-22.055,48.578-34.425
	C227.532,360.12,214.522,343.161,199.856,327.915z"/>
</svg>
